<svg width="20" height="20" viewBox="0 0 20 20" fill="none" xmlns="http://www.w3.org/2000/svg">
<g clip-path="url(#clip0_52_356)">
<path d="M3.125 18.75H10.625C10.9564 18.7496 11.2741 18.6178 11.5085 18.3835C11.7428 18.1491 11.8746 17.8314 11.875 17.5V15.625H10.625V17.5H3.125V2.5H10.625V4.375H11.875V2.5C11.8746 2.1686 11.7428 1.85087 11.5085 1.61654C11.2741 1.3822 10.9564 1.25038 10.625 1.25H3.125C2.7936 1.25038 2.47587 1.3822 2.24154 1.61654C2.0072 1.85087 1.87538 2.1686 1.875 2.5V17.5C1.87538 17.8314 2.0072 18.1491 2.24154 18.3835C2.47587 18.6178 2.7936 18.7496 3.125 18.75Z" fill="white"/>
<path d="M12.8663 12.8663L15.1075 10.625H6.25V9.375H15.1075L12.8663 7.13375L13.75 6.25L17.5 10L13.75 13.75L12.8663 12.8663Z" fill="white"/>
</g>
<defs>
<clipPath id="clip0_52_356">
<rect width="20" height="20" fill="white"/>
</clipPath>
</defs>
</svg>
