<svg width="48" height="48" viewBox="0 0 48 48" fill="none" xmlns="http://www.w3.org/2000/svg">
<g clip-path="url(#clip0_51_249)">
<path d="M40.1234 37.3951C42.277 34.8033 43.7747 31.7309 44.4899 28.4379C45.205 25.1449 45.1166 21.7281 44.2321 18.4764C43.3476 15.2248 41.693 12.234 39.4082 9.75708C37.1235 7.28011 34.2758 5.38982 31.106 4.2461C27.9363 3.10237 24.5377 2.73885 21.1977 3.18629C17.8578 3.63373 14.6747 4.87895 11.9178 6.81665C9.1608 8.75434 6.91106 11.3275 5.35882 14.3185C3.80657 17.3095 2.99749 20.6303 3.00001 24.0001C3.00118 28.8994 4.72772 33.6418 7.87666 37.3951L7.84666 37.42C7.95166 37.5467 8.07166 37.6551 8.17996 37.7788C8.31496 37.9342 8.45956 38.0788 8.59996 38.23C9.01996 38.685 9.45106 39.1228 9.90496 39.535C10.0422 39.6596 10.1846 39.7768 10.325 39.8976C10.805 40.3114 11.2976 40.7033 11.81 41.0695C11.8761 41.1163 11.9348 41.1734 12.0014 41.2204V41.2014C15.5145 43.6736 19.7055 45.0004 24.0014 45.0004C28.2972 45.0004 32.4882 43.6736 36.0014 41.2014V41.2201C36.068 41.1731 36.1266 41.116 36.1928 41.0692C36.7046 40.703 37.1978 40.3111 37.6778 39.8973C37.8182 39.7773 37.9605 39.6593 38.0978 39.5347C38.5515 39.1223 38.9828 38.6845 39.4028 38.2297C39.5427 38.0788 39.6869 37.9339 39.8228 37.7785C39.9306 37.6547 40.0511 37.5464 40.1561 37.4197L40.1234 37.3951ZM24 12.0001C25.335 12.0001 26.6401 12.396 27.7501 13.1377C28.8601 13.8794 29.7253 14.9336 30.2362 16.167C30.7471 17.4004 30.8808 18.7576 30.6203 20.067C30.3599 21.3763 29.717 22.5791 28.773 23.5231C27.829 24.4671 26.6262 25.11 25.3169 25.3704C24.0075 25.6309 22.6503 25.4972 21.4169 24.9863C20.1835 24.4754 19.1293 23.6102 18.3876 22.5002C17.6459 21.3902 17.25 20.0851 17.25 18.7501C17.25 16.9599 17.9612 15.243 19.227 13.9771C20.4929 12.7113 22.2098 12.0001 24 12.0001ZM12.0107 37.3951C12.0366 35.4255 12.8369 33.5454 14.2385 32.1614C15.6401 30.7775 17.5303 30.001 19.5 30.0001H28.5C30.4697 30.0011 32.3599 30.7775 33.7615 32.1615C35.1631 33.5454 35.9634 35.4256 35.9894 37.3951C32.6996 40.3595 28.4283 42.0001 24 42.0001C19.5717 42.0001 15.3004 40.3595 12.0107 37.3951Z" fill="white" fill-opacity="0.64"/>
</g>
<defs>
<clipPath id="clip0_51_249">
<rect width="48" height="48" fill="white"/>
</clipPath>
</defs>
</svg>
